<?xml version="1.0" encoding="UTF-8"?>
<svg width="463px" height="180px" viewBox="0 0 463 180" version="1.1" xmlns="http://www.w3.org/2000/svg" xmlns:xlink="http://www.w3.org/1999/xlink">
    <!-- Generator: sketchtool 57.1 (101010) - https://sketch.com -->
    <title>974BF5C8-8DD3-46E9-8604-7AA21E7272A7</title>
    <desc>Created with sketchtool.</desc>
    <g id="Desktop_Ruffles" stroke="none" stroke-width="1" fill="none" fill-rule="evenodd">
        <g id="404" transform="translate(-704.000000, -315.000000)">
            <g transform="translate(704.594472, 315.000000)" id="Group-5">
                <g>
                    <path d="M1.13686838e-13,114.223116 L81.2613699,1.13686838e-13 L117.715068,1.13686838e-13 L117.715068,107.131658 L143.283288,107.131658 L143.283288,139.549749 L117.715068,139.549749 L117.715068,177.286432 L74.6794521,177.286432 L74.6794521,139.549749 L1.13686838e-13,139.549749 L1.13686838e-13,114.223116 Z M41.769863,107.131658 L74.6794521,107.131658 L74.6794521,60.7839196 L41.769863,107.131658 Z M230.367123,35.9638191 C206.82411,35.9638191 205.305205,47.6140704 205.305205,76.2331658 L205.305205,103.58593 C205.305205,132.205025 206.82411,143.855276 230.367123,143.855276 C253.910137,143.855276 255.429041,132.205025 255.429041,103.58593 L255.429041,76.2331658 C255.429041,47.6140704 253.910137,35.9638191 230.367123,35.9638191 Z M230.367123,1.13686838e-13 C280.490959,1.13686838e-13 298.970959,20.0080402 298.970959,70.9145729 L298.970959,108.904523 C298.970959,159.811055 280.490959,179.819095 230.367123,179.819095 C180.243288,179.819095 161.763288,159.811055 161.763288,108.904523 L161.763288,70.9145729 C161.763288,20.0080402 180.243288,1.13686838e-13 230.367123,1.13686838e-13 Z M318.463562,114.223116 L399.724932,1.13686838e-13 L436.17863,1.13686838e-13 L436.17863,107.131658 L461.746849,107.131658 L461.746849,139.549749 L436.17863,139.549749 L436.17863,177.286432 L393.143014,177.286432 L393.143014,139.549749 L318.463562,139.549749 L318.463562,114.223116 Z M360.233425,107.131658 L393.143014,107.131658 L393.143014,60.7839196 L360.233425,107.131658 Z" id="404" fill="#FFFFFF" fill-rule="nonzero"></path>
                    <path d="M19.857863,132.060302 L8.4570411,132.060302 L8.4570411,115.59799 L19.857863,115.59799 L19.857863,118.090854 L11.3248767,118.090854 L11.3248767,122.41809 L18.5179726,122.41809 L18.5179726,124.86392 L11.3248767,124.86392 L11.3248767,129.567437 L19.857863,129.567437 L19.857863,132.060302 Z M48.724274,132.060302 L45.3157808,132.060302 L41.8837808,125.616482 L38.4752877,125.616482 L38.4752877,132.060302 L35.6074521,132.060302 L35.6074521,115.59799 L42.5184658,115.59799 C46.5146301,115.59799 48.089589,117.291256 48.089589,120.583719 L48.089589,120.630754 C48.089589,123.264724 47.1963288,124.652261 44.822137,125.310754 L48.724274,132.060302 Z M45.1512329,120.607236 C45.1512329,118.843417 44.5400548,118.090854 42.2598904,118.090854 L38.4752877,118.090854 L38.4752877,123.123618 L42.2598904,123.123618 C44.5400548,123.123618 45.1512329,122.371055 45.1512329,120.607236 Z M77.1440548,132.060302 L73.7355616,132.060302 L70.3035616,125.616482 L66.8950685,125.616482 L66.8950685,132.060302 L64.0272329,132.060302 L64.0272329,115.59799 L70.9382466,115.59799 C74.934411,115.59799 76.5093699,117.291256 76.5093699,120.583719 L76.5093699,120.630754 C76.5093699,123.264724 75.6161096,124.652261 73.2419178,125.310754 L77.1440548,132.060302 Z M73.5710137,120.607236 C73.5710137,118.843417 72.9598356,118.090854 70.6796712,118.090854 L66.8950685,118.090854 L66.8950685,123.123618 L70.6796712,123.123618 C72.9598356,123.123618 73.5710137,122.371055 73.5710137,120.607236 Z M94.1865205,121.712563 L94.1865205,125.945729 C94.1865205,128.767839 95.6204384,129.802613 98.0886575,129.802613 C100.556877,129.802613 102.014301,128.767839 102.014301,125.945729 L102.014301,121.712563 C102.014301,118.866935 100.556877,117.855678 98.0886575,117.855678 C95.6204384,117.855678 94.1865205,118.866935 94.1865205,121.712563 Z M104.85863,121.594975 L104.85863,126.063317 C104.85863,130.178894 102.554959,132.295477 98.0886575,132.295477 C93.6223562,132.295477 91.3186849,130.178894 91.3186849,126.063317 L91.3186849,121.594975 C91.3186849,117.455879 93.6223562,115.362814 98.0886575,115.362814 C102.554959,115.362814 104.85863,117.455879 104.85863,121.594975 Z M134.007123,132.060302 L130.59863,132.060302 L127.16663,125.616482 L123.758137,125.616482 L123.758137,132.060302 L120.890301,132.060302 L120.890301,115.59799 L127.801315,115.59799 C131.797479,115.59799 133.372438,117.291256 133.372438,120.583719 L133.372438,120.630754 C133.372438,123.264724 132.479178,124.652261 130.104986,125.310754 L134.007123,132.060302 Z M130.434082,120.607236 C130.434082,118.843417 129.822904,118.090854 127.54274,118.090854 L123.758137,118.090854 L123.758137,123.123618 L127.54274,123.123618 C129.822904,123.123618 130.434082,122.371055 130.434082,120.607236 Z" id="ERROR" fill="#005D00" fill-rule="nonzero"></path>
                </g>
            </g>
        </g>
    </g>
</svg>