<?xml version="1.0" encoding="UTF-8"?>
<svg width="337px" height="78px" viewBox="0 0 337 78" version="1.1" xmlns="http://www.w3.org/2000/svg" xmlns:xlink="http://www.w3.org/1999/xlink">
    <!-- Generator: Sketch 57.1 (83088) - https://sketch.com -->
    <title>mecanica</title>
    <desc>Created with Sketch.</desc>
    <g id="Desktop_Ruffles" stroke="none" stroke-width="1" fill="none" fill-rule="evenodd">
        <g id="Landing_Desktop-Copy-2" transform="translate(-792.000000, -775.000000)">
            <g id="mecanica" transform="translate(792.000000, 775.000000)">
                <path d="M26,70 C141.222306,54.933801 234.888973,52.0277994 307,61.2819954" id="Path-2" stroke="#CE1036" stroke-width="16" stroke-linecap="round"></path>
                <path d="M24.28,53.76 L16.78,33.12 L16.3,33.12 L15.04,48.78 L18.04,48.78 L18.04,57 L0.04,57 L0.04,48.78 L4.72,48.78 L6.34,24 L1.54,24 L1.54,15.72 L18.46,15.72 L24.94,31.68 C25.6,33.24 27.22,39.06 27.22,39.06 L28.24,39.06 C28.24,39.06 29.86,33.24 30.52,31.68 L37,15.72 L53.98,15.72 L53.98,24 L49.18,24 L50.44,48.78 L55.18,48.78 L55.18,57 L37.18,57 L37.18,48.78 L40.18,48.78 L38.92,33.12 L38.44,33.12 L30.94,53.76 L24.28,53.76 Z M92.74,57 L59.02,57 L59.02,48.78 L63.7,48.78 L63.7,23.94 L59.02,23.94 L59.02,15.72 L93.04,15.72 L93.28,30.18 L85.6,30.18 L85.6,24.24 L74.02,24.24 L74.02,32.22 L82.96,32.22 L82.96,40.44 L74.02,40.44 L74.02,48.48 L85.48,48.48 L85.48,42.54 L93.16,42.54 L92.74,57 Z M116.38,48.78 C121.54,48.78 123.16,46.38 123.16,42.42 L133.12,42.42 L133.12,44.34 C133.12,49.8 129.64,57.42 115.48,57.42 C104.32,57.42 97.36,50.88 97.36,36.3 C97.36,21.84 104.5,15.36 115.78,15.36 C129.7,15.36 133.12,23.34 133.12,29.04 L133.12,32.16 L123.16,32.16 L123.16,30.9 C123.16,27.96 121.6,23.94 116.32,23.94 C111.58,23.94 107.8,26.94 107.8,36.48 C107.8,45.9 111.82,48.78 116.38,48.78 Z M157.06,11.58 L148.36,11.58 L153.16,0.6 L165.28,0.6 L157.06,11.58 Z M162.4,15.72 L174.94,48.78 L179.14,48.78 L179.14,57 L160.54,57 L160.54,48.78 L165.04,48.78 L163.54,44.82 L149.56,44.82 L148.06,48.78 L152.56,48.78 L152.56,57 L134.26,57 L134.26,48.78 L138.46,48.78 L147.88,23.94 L142.6,23.94 L142.6,15.72 L162.4,15.72 Z M160.6,36.96 L158.02,30.12 C157.6,29.04 156.7,26.46 156.7,26.46 L156.4,26.46 C156.4,26.46 155.5,29.04 155.08,30.12 L152.5,36.96 L160.6,36.96 Z M223,57 L212.56,57 L196.78,35.16 L196.42,35.16 L196.42,48.78 L201.16,48.78 L201.16,57 L181.36,57 L181.36,48.78 L186.1,48.78 L186.1,24 L181.36,24 L181.36,15.72 L194.98,15.72 L212.26,40.26 L212.68,40.26 L212.68,24 L207.94,23.94 L207.94,15.72 L227.74,15.72 L227.74,23.94 L223,24 L223,57 Z M251.2,57 L231.4,57 L231.4,48.78 L236.14,48.78 L236.14,24 L231.4,24 L231.4,15.72 L251.2,15.72 L251.2,24 L246.46,24 L246.46,48.78 L251.2,48.78 L251.2,57 Z M273.76,48.78 C278.92,48.78 280.54,46.38 280.54,42.42 L290.5,42.42 L290.5,44.34 C290.5,49.8 287.02,57.42 272.86,57.42 C261.7,57.42 254.74,50.88 254.74,36.3 C254.74,21.84 261.88,15.36 273.16,15.36 C287.08,15.36 290.5,23.34 290.5,29.04 L290.5,32.16 L280.54,32.16 L280.54,30.9 C280.54,27.96 278.98,23.94 273.7,23.94 C268.96,23.94 265.18,26.94 265.18,36.48 C265.18,45.9 269.2,48.78 273.76,48.78 Z M319.78,15.72 L332.32,48.78 L336.52,48.78 L336.52,57 L317.92,57 L317.92,48.78 L322.42,48.78 L320.92,44.82 L306.94,44.82 L305.44,48.78 L309.94,48.78 L309.94,57 L291.64,57 L291.64,48.78 L295.84,48.78 L305.26,23.94 L299.98,23.94 L299.98,15.72 L319.78,15.72 Z M317.98,36.96 L315.4,30.12 C314.98,29.04 314.08,26.46 314.08,26.46 L313.78,26.46 C313.78,26.46 312.88,29.04 312.46,30.12 L309.88,36.96 L317.98,36.96 Z" id="MECÃNICA" fill="#FFFFFF" fill-rule="nonzero"></path>
            </g>
        </g>
    </g>
</svg>