<?xml version="1.0" encoding="UTF-8"?>
<svg width="55px" height="54px" viewBox="0 0 55 54" version="1.1" xmlns="http://www.w3.org/2000/svg" xmlns:xlink="http://www.w3.org/1999/xlink">
    <!-- Generator: sketchtool 57.1 (101010) - https://sketch.com -->
    <title>74F0C269-22AE-47E8-BC56-18B865DC9C54</title>
    <desc>Created with sketchtool.</desc>
    <defs>
        <circle id="path-1" cx="27.444332" cy="26.7948718" r="26.7948718"></circle>
        <polygon id="path-3" points="0.00903082802 0.257326316 5.54780943 0.257326316 5.54780943 3.07320632 0.00903082802 3.07320632"></polygon>
        <polygon id="path-5" points="0.126522523 0.197593684 19.1852252 0.197593684 19.1852252 19.1252147 0.126522523 19.1252147"></polygon>
    </defs>
    <g id="Desktop_Ruffles" stroke="none" stroke-width="1" fill="none" fill-rule="evenodd">
        <g id="iPhone-8" transform="translate(-309.000000, -76.000000)">
            <g id="sesion" transform="translate(309.000000, 76.000000)">
                <g id="Shape">
                    <mask id="mask-2" fill="white">
                        <use xlink:href="#path-1"></use>
                    </mask>
                    <use id="Mask" fill="#FFFFFF" xlink:href="#path-1"></use>
                </g>
                <g id="facer" transform="translate(7.051282, 9.871795)">
                    <g id="Group-19">
                        <g id="Group-3" transform="translate(22.342342, 0.100568)">
                            <mask id="mask-4" fill="white">
                                <use xlink:href="#path-3"></use>
                            </mask>
                            <g id="Clip-2"></g>
                            <path d="M4.84540541,3.07320632 C4.79963964,3.07320632 4.75315315,3.06855368 4.70666667,3.05924842 C3.20792793,2.76112211 1.75711712,2.26257474 0.394594595,1.57792211 C0.0482882883,1.40398526 -0.0904504505,0.983816842 0.085045045,0.63988 C0.26018018,0.295943158 0.683243243,0.158869474 1.02954955,0.332448421 C2.27855856,0.960195789 3.60864865,1.41686947 4.9827027,1.69065895 C5.36324324,1.76617474 5.61009009,2.13409053 5.53405405,2.51202737 C5.46702703,2.84343789 5.17369369,3.07320632 4.84540541,3.07320632" id="Fill-1" fill="#E02020" mask="url(#mask-4)"></path>
                        </g>
                        <path d="M16.1122883,26.1817902 C15.1533694,26.1821474 14.1955315,26.0425684 13.2701261,25.7648421 C12.9980541,25.6828842 12.8023784,25.4470316 12.7739099,25.1664421 C12.7458018,24.8858526 12.8899459,24.6156421 13.140036,24.4821474 C15.9364324,22.9854316 16.9721081,19.4759158 17.3486847,16.7949263 C18.0333694,11.9200421 17.4380541,6.93564211 16.7955315,2.09261053 L12.6319279,3.27402105 C12.2578739,3.37924211 11.8697658,3.16486316 11.7630991,2.79408421 C11.6564324,2.42366316 11.8726486,2.03713684 12.245982,1.9312 L17.1926486,0.527894737 C17.3886847,0.472778947 17.6002162,0.504273684 17.7713874,0.615578947 C17.9421982,0.726884211 18.0557117,0.906547368 18.0823784,1.10768421 C18.7742703,6.29357895 19.4899459,11.6555579 18.7407568,16.9881895 C18.3854414,19.5217263 17.4755315,22.7316842 15.2052613,24.7373263 C16.1735495,24.8407579 17.156973,24.7781263 18.1097658,24.5469263 C18.4867027,24.4553053 18.8676036,24.684 18.9598559,25.0587158 C19.0521081,25.4334316 18.8214775,25.8113684 18.4441802,25.9029895 C17.6780541,26.0890947 16.894991,26.1817902 16.1122883,26.1817902" id="Fill-4" fill="#E02020"></path>
                        <path d="M18.6302342,33.7426737 C18.608973,33.7426737 18.5877117,33.7423158 18.5664505,33.7419579 C17.7758198,33.7233474 16.9913153,33.3582947 16.414018,32.7402105 C15.8370811,32.1224842 15.528973,31.3182947 15.5693333,30.5337895 C15.5895135,30.1486947 15.9163604,29.8455579 16.3077117,29.8724 C16.6950991,29.8920842 16.9934775,30.2202737 16.9736577,30.6050105 C16.9523964,31.0155158 17.1239279,31.4474947 17.4446486,31.7907158 C17.7653694,32.1339368 18.1862703,32.3361474 18.599964,32.3461684 C19.0021261,32.3540421 19.4428468,32.1733053 19.7794234,31.8454737 C20.1163604,31.5176421 20.3084324,31.0942526 20.3066306,30.6833895 C20.3051892,30.2979368 20.6187027,29.9840632 21.0068108,29.9826316 L21.0096937,29.9826316 C21.3967207,29.9826316 21.710955,30.2932842 21.7127794,30.6780211 C21.716,31.4632421 21.3700541,32.2524 20.7639279,32.8422105 C20.1743784,33.4166316 19.399964,33.7426737 18.6302342,33.7426737" id="Fill-6" fill="#E02020"></path>
                        <path d="M9.52954955,5.27289895 C5.05027027,5.27289895 1.40594595,8.89228842 1.40594595,13.34092 C1.40594595,17.7895516 5.05027027,21.4089411 9.52954955,21.4089411 C14.0088288,21.4089411 17.6527928,17.7895516 17.6527928,13.34092 C17.6527928,8.89228842 14.0088288,5.27289895 9.52954955,5.27289895 M9.52954955,22.8047305 C4.27477477,22.8047305 0.00018018018,18.5593832 0.00018018018,13.34092 C0.00018018018,8.12245684 4.27477477,3.87710947 9.52954955,3.87710947 C14.783964,3.87710947 19.0589189,8.12245684 19.0589189,13.34092 C19.0589189,18.5593832 14.783964,22.8047305 9.52954955,22.8047305" id="Fill-8" fill="#E02020"></path>
                        <g id="Group-12" transform="translate(20.180180, 3.679516)">
                            <mask id="mask-6" fill="white">
                                <use xlink:href="#path-5"></use>
                            </mask>
                            <g id="Clip-11"></g>
                            <path d="M9.65589189,1.59338316 C5.17661261,1.59338316 1.53264865,5.21277263 1.53264865,9.66140421 C1.53264865,14.1100358 5.17661261,17.7294253 9.65589189,17.7294253 C14.1351712,17.7294253 17.7791351,14.1100358 17.7791351,9.66140421 C17.7791351,5.21277263 14.1351712,1.59338316 9.65589189,1.59338316 M9.65589189,19.1252147 C4.40147748,19.1252147 0.126522523,14.8798674 0.126522523,9.66140421 C0.126522523,4.44294105 4.40147748,0.197593684 9.65589189,0.197593684 C14.9103063,0.197593684 19.1852613,4.44294105 19.1852613,9.66140421 C19.1852613,14.8798674 14.9103063,19.1252147 9.65589189,19.1252147" id="Fill-10" fill="#E02020" mask="url(#mask-6)"></path>
                        </g>
                        <path d="M21.0097297,14.9730989 L18.356036,14.9730989 C17.9679279,14.9730989 17.652973,14.6606568 17.652973,14.2752042 C17.652973,13.8897516 17.9679279,13.5773095 18.356036,13.5773095 L21.0097297,13.5773095 C21.3978378,13.5773095 21.7127928,13.8897516 21.7127928,14.2752042 C21.7127928,14.6606568 21.3978378,14.9730989 21.0097297,14.9730989" id="Fill-13" fill="#E02020"></path>
                        <path d="M25.6542703,13.3880905 C25.6542703,13.8780484 25.2542703,14.2753116 24.7609369,14.2753116 C24.2676036,14.2753116 23.8676036,13.8780484 23.8676036,13.3880905 C23.8676036,12.8981326 24.2676036,12.5008695 24.7609369,12.5008695 C25.2542703,12.5008695 25.6542703,12.8981326 25.6542703,13.3880905" id="Fill-15" fill="#E02020"></path>
                        <path d="M15.7121802,13.3880905 C15.7121802,13.8780484 15.3121802,14.2753116 14.8188468,14.2753116 C14.3255135,14.2753116 13.9255135,13.8780484 13.9255135,13.3880905 C13.9255135,12.8981326 14.3255135,12.5008695 14.8188468,12.5008695 C15.3121802,12.5008695 15.7121802,12.8981326 15.7121802,13.3880905" id="Fill-17" fill="#E02020"></path>
                    </g>
                </g>
            </g>
        </g>
    </g>
</svg>