<?xml version="1.0" encoding="UTF-8"?>
<svg width="145px" height="145px" viewBox="0 0 145 145" version="1.1" xmlns="http://www.w3.org/2000/svg" xmlns:xlink="http://www.w3.org/1999/xlink">
    <!-- Generator: sketchtool 57.1 (101010) - https://sketch.com -->
    <title>F4A73DA9-DB4E-43F5-B162-4FBB600A6C34</title>
    <desc>Created with sketchtool.</desc>
    <defs>
        <circle id="path-1" cx="72.5" cy="72.5" r="72.5"></circle>
        <polygon id="path-3" points="0.0198678217 0.567631579 12.2051807 0.567631579 12.2051807 6.77913158 0.0198678217 6.77913158"></polygon>
        <polygon id="path-5" points="0.27834955 0.435868421 42.2074955 0.435868421 42.2074955 42.1879737 0.27834955 42.1879737"></polygon>
    </defs>
    <g id="Desktop_Ruffles" stroke="none" stroke-width="1" fill="none" fill-rule="evenodd">
        <g id="Perfil" transform="translate(-886.000000, -32.000000)">
            <g id="Group-5" transform="translate(886.000000, 32.000000)">
                <g id="Group-20">
                    <mask id="mask-2" fill="white">
                        <use xlink:href="#path-1"></use>
                    </mask>
                    <use id="Mask" fill="#002700" xlink:href="#path-1"></use>
                </g>
                <g id="face" transform="translate(29.000000, 35.000000)">
                    <g id="Group-19">
                        <g id="Group-3" transform="translate(49.153153, 0.221842)">
                            <mask id="mask-4" fill="white">
                                <use xlink:href="#path-3"></use>
                            </mask>
                            <g id="Clip-2"></g>
                            <path d="M10.6598919,6.77913158 C10.5592072,6.77913158 10.4569369,6.76886842 10.3546667,6.74834211 C7.05744144,6.09071053 3.86565766,4.99097368 0.868108108,3.48071053 C0.106234234,3.09702632 -0.198990991,2.17018421 0.187099099,1.4115 C0.572396396,0.652815789 1.50313514,0.350447368 2.26500901,0.733342105 C5.01282883,2.11807895 7.93902703,3.12544737 10.9619459,3.72939474 C11.7991351,3.89597368 12.3421982,4.70755263 12.1749189,5.54123684 C12.0274595,6.27228947 11.3821261,6.77913158 10.6598919,6.77913158" id="Fill-1" fill="#FFFFFF" mask="url(#mask-4)"></path>
                        </g>
                        <path d="M35.4470342,57.7539489 C33.3374126,57.7547368 31.2301694,57.4468421 29.1942775,56.8342105 C28.5957189,56.6534211 28.1652324,56.1331579 28.1026018,55.5142105 C28.040764,54.8952632 28.3578811,54.2992105 28.9080793,54.0047368 C35.0601514,50.7031579 37.3386378,42.9615789 38.1671063,37.0476316 C39.6734126,26.2942105 38.3637189,15.2992105 36.9501694,4.61605263 L27.7902414,7.22210526 C26.9673225,7.45421053 26.1134847,6.98131579 25.878818,6.16342105 C25.6441514,5.34631579 26.119827,4.49368421 26.9411604,4.26 L37.823827,1.16447368 C38.2551063,1.04289474 38.7204757,1.11236842 39.0970523,1.35789474 C39.472836,1.60342105 39.7225658,1.99973684 39.7812324,2.44342105 C41.3033946,13.8828947 42.8778811,25.7107895 41.2296649,37.4739474 C40.4479712,43.0626316 38.4461694,50.1434211 33.4515748,54.5676316 C35.581809,54.7957895 37.7453405,54.6576316 39.8414847,54.1476316 C40.6707459,53.9455263 41.5087279,54.45 41.7116829,55.2765789 C41.9146378,56.1031579 41.4072505,56.9368421 40.5771964,57.1389474 C38.8917189,57.5494737 37.1689802,57.7539489 35.4470342,57.7539489" id="Fill-4" fill="#FFFFFF"></path>
                        <path d="M40.9865153,74.4323684 C40.9397405,74.4323684 40.8929658,74.4315789 40.846191,74.4307895 C39.1068036,74.3897368 37.3808937,73.5844737 36.1108396,72.2210526 C34.8415784,70.8584211 34.1637405,69.0844737 34.2525333,67.3539474 C34.2969297,66.5044737 35.0159928,65.8357895 35.8769658,65.895 C36.729218,65.9384211 37.3856505,66.6623684 37.3420468,67.5110526 C37.2952721,68.4165789 37.6726414,69.3694737 38.378227,70.1265789 C39.0838126,70.8836842 40.0097946,71.3297368 40.9199207,71.3518421 C41.8046775,71.3692105 42.7742631,70.9705263 43.5147315,70.2473684 C44.2559928,69.5242105 44.6785514,68.5902632 44.6745874,67.6839474 C44.6714162,66.8336842 45.3611459,66.1413158 46.2149838,66.1381579 L46.2213261,66.1381579 C47.0727856,66.1381579 47.7641009,66.8234211 47.7681146,67.6721053 C47.7752,69.4042105 47.0141189,71.145 45.6806414,72.4460526 C44.3836324,73.7131579 42.6799207,74.4323684 40.9865153,74.4323684" id="Fill-6" fill="#FFFFFF"></path>
                        <path d="M20.965009,11.6313947 C11.1105946,11.6313947 3.09308108,19.6153421 3.09308108,29.4285 C3.09308108,39.2416579 11.1105946,47.2256053 20.965009,47.2256053 C30.8194234,47.2256053 38.8361441,39.2416579 38.8361441,29.4285 C38.8361441,19.6153421 30.8194234,11.6313947 20.965009,11.6313947 M20.965009,50.3045526 C9.4045045,50.3045526 0.000396396396,40.9398158 0.000396396396,29.4285 C0.000396396396,17.9171842 9.4045045,8.55244737 20.965009,8.55244737 C32.5247207,8.55244737 41.9296216,17.9171842 41.9296216,29.4285 C41.9296216,40.9398158 32.5247207,50.3045526 20.965009,50.3045526" id="Fill-8" fill="#FFFFFF"></path>
                        <g id="Group-12" transform="translate(44.396396, 8.116579)">
                            <mask id="mask-6" fill="white">
                                <use xlink:href="#path-5"></use>
                            </mask>
                            <g id="Clip-11"></g>
                            <path d="M21.2429622,3.51481579 C11.3885477,3.51481579 3.37182703,11.4987632 3.37182703,21.3119211 C3.37182703,31.1250789 11.3885477,39.1090263 21.2429622,39.1090263 C31.0973766,39.1090263 39.1140973,31.1250789 39.1140973,21.3119211 C39.1140973,11.4987632 31.0973766,3.51481579 21.2429622,3.51481579 M21.2429622,42.1879737 C9.68325045,42.1879737 0.27834955,32.8232368 0.27834955,21.3119211 C0.27834955,9.80060526 9.68325045,0.435868421 21.2429622,0.435868421 C32.8026739,0.435868421 42.2075748,9.80060526 42.2075748,21.3119211 C42.2075748,32.8232368 32.8026739,42.1879737 21.2429622,42.1879737" id="Fill-10" fill="#FFFFFF" mask="url(#mask-6)"></path>
                        </g>
                        <path d="M46.2214054,33.0288947 L40.3832793,33.0288947 C39.5294414,33.0288947 38.8365405,32.3396842 38.8365405,31.4894211 C38.8365405,30.6391579 39.5294414,29.9499474 40.3832793,29.9499474 L46.2214054,29.9499474 C47.0752432,29.9499474 47.7681441,30.6391579 47.7681441,31.4894211 C47.7681441,32.3396842 47.0752432,33.0288947 46.2214054,33.0288947" id="Fill-13" fill="#FFFFFF"></path>
                        <path d="M56.4393946,29.5325526 C56.4393946,30.6133421 55.5593946,31.4896579 54.4740613,31.4896579 C53.3887279,31.4896579 52.5087279,30.6133421 52.5087279,29.5325526 C52.5087279,28.4517632 53.3887279,27.5754474 54.4740613,27.5754474 C55.5593946,27.5754474 56.4393946,28.4517632 56.4393946,29.5325526" id="Fill-15" fill="#FFFFFF"></path>
                        <path d="M34.5667964,29.5325526 C34.5667964,30.6133421 33.6867964,31.4896579 32.6014631,31.4896579 C31.5161297,31.4896579 30.6361297,30.6133421 30.6361297,29.5325526 C30.6361297,28.4517632 31.5161297,27.5754474 32.6014631,27.5754474 C33.6867964,27.5754474 34.5667964,28.4517632 34.5667964,29.5325526" id="Fill-17" fill="#FFFFFF"></path>
                    </g>
                </g>
            </g>
        </g>
    </g>
</svg>