<?xml version="1.0" encoding="UTF-8"?>
<svg width="50px" height="70px" viewBox="0 0 50 70" version="1.1" xmlns="http://www.w3.org/2000/svg" xmlns:xlink="http://www.w3.org/1999/xlink">
    <!-- Generator: sketchtool 57.1 (101010) - https://sketch.com -->
    <title>31C7BFEA-FCAB-4D15-97BE-B59074B5C25D</title>
    <desc>Created with sketchtool.</desc>
    <g id="Desktop_Ruffles" stroke="none" stroke-width="1" fill="none" fill-rule="evenodd">
        <g id="Landing_Desktop-Copy-2" transform="translate(-1803.000000, -1498.000000)">
            <g id="subir" transform="translate(1803.000000, 1498.000000)">
                <g id="Group-21">
                    <rect id="Rectangle" fill="#FFFFFF" x="0" y="0" width="50" height="50" rx="7"></rect>
                    <path d="M36.3967235,23.4980655 L25.7825634,12.6340793 C25.3698524,12.2113013 24.8750217,12 24.2989281,12 C23.7335705,12 23.2445076,12.2113013 22.831454,12.6340793 L21.6087397,13.8856378 C21.1956289,14.2862044 20.9891307,14.7868395 20.9891307,15.38766 C20.9891307,15.9883637 21.1956289,16.4889988 21.6087397,16.8896822 L26.385897,21.7959062 L14.9074822,21.7959062 C14.3424101,21.7959062 13.8831571,22.0044603 13.5298942,22.4217439 C13.1766314,22.8390275 13,23.3424682 13,23.9319492 L13,26.0681092 C13,26.6577656 13.1766885,27.161031 13.5298942,27.5783146 C13.8830999,27.9955982 14.3424101,28.2039769 14.9074822,28.2039769 L26.3856686,28.2039769 L21.6085684,33.093893 C21.1954576,33.5163787 20.9889593,34.0226836 20.9889593,34.6125153 C20.9889593,35.2022301 21.1954576,35.7084766 21.6085684,36.1309623 L22.8312826,37.3825208 C23.2553579,37.7941931 23.7444208,38 24.2987567,38 C24.8640572,38 25.3587736,37.7941931 25.7824492,37.3825208 L36.3965522,26.5185347 C36.7987555,26.1068624 37,25.6007913 37,24.9999123 C37,24.3881029 36.7987555,23.887234 36.3967235,23.4980655 Z" id="Path" fill="#2D2D2D" fill-rule="nonzero" transform="translate(25.000000, 25.000000) rotate(-90.000000) translate(-25.000000, -25.000000) "></path>
                </g>
                <path d="M12.155,69.14 C10.475,69.14 9.355,68.776 8.389,68.216 L9.019,66.802 C9.761,67.222 10.769,67.6 12.155,67.6 C13.779,67.6 14.535,67.236 14.535,66.228 C14.535,65.178 14.003,64.912 12.253,64.66 C9.537,64.268 8.767,63.596 8.767,61.888 C8.767,59.97 10.139,59.06 12.575,59.06 C14.073,59.06 15.053,59.354 16.005,59.9 L15.361,61.314 C14.619,60.894 13.793,60.6 12.547,60.6 C11.357,60.6 10.503,60.838 10.503,61.832 C10.503,62.742 10.937,62.98 12.491,63.19 C15.207,63.582 16.271,64.142 16.271,66.172 C16.271,68.272 14.717,69.14 12.155,69.14 Z M22.487,66.788 L22.487,61.72 L24.125,61.72 L24.125,69 L22.599,69 L22.599,68.034 C22.011,68.678 21.143,69.14 19.967,69.14 C18.329,69.14 17.559,68.272 17.559,67.04 L17.559,61.72 L19.211,61.72 L19.211,66.508 C19.211,67.236 19.547,67.656 20.527,67.656 C21.311,67.656 22.053,67.348 22.487,66.788 Z M30.915,66.046 L30.915,64.66 C30.915,63.596 30.397,63.022 29.277,63.022 C28.451,63.022 27.807,63.386 27.373,63.96 L27.373,66.76 C27.807,67.334 28.451,67.698 29.277,67.698 C30.397,67.698 30.915,67.124 30.915,66.046 Z M32.567,64.534 L32.567,66.172 C32.567,68.006 31.587,69.14 29.767,69.14 C28.493,69.14 27.695,68.552 27.261,68.02 L27.261,69 L25.735,69 L25.735,58.78 L27.373,58.78 L27.373,62.574 C27.695,62.168 28.493,61.58 29.767,61.58 C31.587,61.58 32.567,62.7 32.567,64.534 Z M34.177,61.72 L35.815,61.72 L35.815,69 L34.177,69 L34.177,61.72 Z M36.053,59.914 C36.053,60.502 35.661,60.894 35.003,60.894 C34.345,60.894 33.939,60.502 33.939,59.914 C33.939,59.326 34.345,58.92 35.003,58.92 C35.661,58.92 36.053,59.326 36.053,59.914 Z M41.639,61.72 L41.639,63.358 C41.345,63.274 41.051,63.246 40.799,63.246 C40.183,63.246 39.539,63.666 39.203,64.1 L39.203,69 L37.565,69 L37.565,61.72 L39.105,61.72 L39.105,62.812 C39.441,62.168 40.085,61.58 40.981,61.58 C41.205,61.58 41.443,61.622 41.639,61.72 Z" id="Subir" fill="#FFFFFF" fill-rule="nonzero"></path>
            </g>
        </g>
    </g>
</svg>