<?xml version="1.0" encoding="UTF-8"?>
<svg width="297px" height="60px" viewBox="0 0 297 60" version="1.1" xmlns="http://www.w3.org/2000/svg" xmlns:xlink="http://www.w3.org/1999/xlink">
    <!-- Generator: Sketch 57.1 (83088) - https://sketch.com -->
    <title>ranking</title>
    <desc>Created with Sketch.</desc>
    <g id="Desktop_Ruffles" stroke="none" stroke-width="1" fill="none" fill-rule="evenodd">
        <g id="Landing_Desktop-Copy-2" transform="translate(-811.000000, -1706.000000)">
            <g id="ranking" transform="translate(819.000000, 1693.000000)">
                <path d="M0,65 C115.222306,49.933801 208.888973,47.0277994 281,56.2819954" id="Path-2-Copy" stroke="#CE1036" stroke-width="16" stroke-linecap="round"></path>
                <path d="M77.3,20.246 L77.3,40.287 L81.171,40.287 L81.171,47 L65.001,47 L65.001,40.287 L68.872,40.287 L68.872,20.246 L63.139,20.246 L63.188,25.097 L56.916,25.097 L57.161,13.288 L89.011,13.288 L89.256,25.097 L82.984,25.097 L82.935,20.246 L77.3,20.246 Z M106.994,47.343 C97.145,47.343 91.265,41.953 91.265,30.242 C91.265,18.531 97.145,12.994 106.994,12.994 C116.843,12.994 122.723,18.531 122.723,30.242 C122.723,41.953 116.843,47.343 106.994,47.343 Z M106.994,40.287 C111.012,40.287 114.197,38.033 114.197,30.242 C114.197,22.451 111.012,20.001 106.994,20.001 C102.976,20.001 99.791,22.451 99.791,30.242 C99.791,38.033 102.976,40.287 106.994,40.287 Z M142.617,47 L125.614,47 L125.614,40.287 L129.485,40.287 L129.485,20.05 L125.614,20.05 L125.614,13.288 L142.96,13.288 C149.82,13.288 154.524,17.502 154.524,24.313 C154.524,31.859 149.624,35.583 142.274,35.583 L137.913,35.583 L137.913,40.287 L142.617,40.287 L142.617,47 Z M137.913,28.576 L140.951,28.576 C144.822,28.576 145.998,26.763 145.998,24.313 C145.998,21.471 144.038,20.246 141.049,20.246 L137.913,20.246 L137.913,28.576 Z M169.861,32.594 L167.117,31.761 L168.881,13.288 L190.441,13.288 L190.441,20.197 L176.084,20.197 L175.496,25.587 C175.496,25.587 176.721,24.999 179.269,24.999 C186.913,24.999 191.764,28.527 191.764,35.485 C191.764,42.002 187.795,47.343 178.191,47.343 C170.596,47.343 166.382,43.962 164.422,41.855 L169.273,35.877 C170.792,37.592 173.928,40.287 178.142,40.287 C181.18,40.287 183.238,38.572 183.238,35.534 C183.238,33.574 181.719,31.271 177.358,31.271 C173.291,31.271 171.527,32.055 169.861,32.594 Z M209.306,47.343 C200.045,47.343 194.557,41.953 194.557,30.242 C194.557,18.531 200.045,12.994 209.306,12.994 C218.567,12.994 224.055,18.531 224.055,30.242 C224.055,41.953 218.567,47.343 209.306,47.343 Z M209.306,40.287 C212.736,40.287 215.529,38.033 215.529,30.242 C215.529,22.451 212.736,20.001 209.306,20.001 C205.876,20.001 203.083,22.451 203.083,30.242 C203.083,38.033 205.876,40.287 209.306,40.287 Z" id="TOP50" fill="#FFFFFF" fill-rule="nonzero"></path>
            </g>
        </g>
    </g>
</svg>